<?xml version="1.0" encoding="UTF-8" standalone="no"?>
<!-- Created with Inkscape (http://www.inkscape.org/) -->
<svg xmlns:dc="http://purl.org/dc/elements/1.1/" xmlns:cc="http://web.resource.org/cc/" xmlns:rdf="http://www.w3.org/1999/02/22-rdf-syntax-ns#" xmlns:svg="http://www.w3.org/2000/svg" xmlns="http://www.w3.org/2000/svg" xmlns:sodipodi="http://sodipodi.sourceforge.net/DTD/sodipodi-0.dtd" xmlns:inkscape="http://www.inkscape.org/namespaces/inkscape" height="532.73474" width="429.56311" id="svg2" sodipodi:version="0.32" inkscape:version="0.44.1" sodipodi:docname="knight_pychess.svg" sodipodi:docbase="/home/users/niby" version="1.0" inkscape:export-filename="/home/users/mimooh/knight.png" inkscape:export-xdpi="18.782837" inkscape:export-ydpi="18.782837">
  <defs id="defs4"/>
  <sodipodi:namedview id="base" pagecolor="#e8e8e8" bordercolor="#666666" borderopacity="1.0" inkscape:pageopacity="0" inkscape:pageshadow="2" inkscape:cx="655.74113" inkscape:cy="2918.9733" inkscape:zoom="0.08" inkscape:document-units="px" inkscape:current-layer="layer1" showborder="false" inkscape:showpageshadow="false" inkscape:window-width="967" inkscape:window-height="735" inkscape:window-x="0" inkscape:window-y="0"/>
  <metadata id="metadata7">
    <rdf:RDF>
      <cc:Work rdf:about="">
        <dc:format>image/svg+xml</dc:format>
        <dc:type rdf:resource="http://purl.org/dc/dcmitype/StillImage"/>
      </cc:Work>
    </rdf:RDF>
  </metadata>
  <g inkscape:groupmode="layer" inkscape:label="Warstwa 1" id="layer1" transform="translate(-3301.055,8106.907)">
    <g id="g2801" transform="matrix(0.282958,0,0,0.282958,5446.699,-7904.186)">
      <path sodipodi:nodetypes="cccssccccccccccccscscccccccccssssccccccccccccccccccccccsccccccccccc" id="path2761" d="M -7026,-716.4375 L -7026.75,-715.78125 C -7043.6076,-697.42016 -7070.5695,-696.79604 -7091.6562,-685.71875 C -7091.6562,-685.71875 -7188.7193,-653.96384 -7188.7193,-653.96384 C -7188.7193,-653.96384 -7211.8121,-630.94801 -7211.8121,-630.94801 C -7211.8121,-630.94801 -7264.8473,-622.59144 -7295.8125,-615.09375 C -7303.9741,-612.04986 -7313.7633,-611.79235 -7320.6875,-606.46875 C -7333.1462,-576.5314 -7342.2869,-546.59265 -7354.7479,-516.65625 C -7376.1317,-531.57769 -7425.5759,-543.56561 -7443.4742,-543.49096 C -7479.175,-479.46994 -7430.7558,-377.92282 -7396.6875,-325.53125 C -7431.5124,-288.42018 -7460.2599,-256.19552 -7495.9062,-219.8125 C -7482.5562,-169.34608 -7462.6118,-119.7663 -7461.9375,-66.9375 C -7458.3722,-33.997962 -7458.1555,-0.54740477 -7450.75,31.8125 C -7447.125,37.737438 -7440.7353,41.637622 -7433.9375,42.84375 C -7418.5861,82.54809 -7402.435,158.20151 -7394.9778,200.16784 C -7394.9778,200.16784 -7376.9625,237.01808 -7376.9625,237.01808 C -7376.9625,237.01808 -7406.3187,335.95607 -7406.3187,335.95607 C -7406.3187,335.95607 -7430.1061,454.96485 -7430.1061,454.96485 C -7430.1061,454.96485 -7531.516,536.77791 -7531.516,536.77791 C -7531.516,536.77791 -7526.4827,659.94654 -7526.4827,659.94654 C -7526.4827,659.94654 -7463.125,637.65625 -7463.125,637.65625 C -7468.8341,665.57856 -7470.8139,692.83403 -7458.5312,708.34375 C -7419.0934,721.75511 -7314.2205,727.08518 -7257.4687,734.28125 L -7288.7187,768.15625 C -7350.9291,795.52312 -7416.5923,848.46905 -7419.2188,906.0625 L -7457.7188,906.0625 C -7527.0546,906.06247 -7582.875,938.03752 -7582.875,977.78125 L -7582.875,994.625 C -7582.875,1013.0421 -7570.8568,1029.7918 -7551.0938,1042.4688 C -7569.019,1049.2076 -7582.9063,1079.7458 -7582.9062,1089.2188 C -7582.906,1110.8041 -7556.1389,1136.4343 -7487.1875,1143.4375 C -7167.948,1176.1791 -6809.3718,1172.5189 -6454.5938,1140.3125 C -6385.5532,1133.9894 -6373.875,1110.8039 -6373.875,1089.2188 C -6373.8751,1079.0624 -6383.1286,1047.9838 -6403.4375,1041.0625 C -6384.968,1028.5678 -6373.8437,1012.3593 -6373.8438,994.625 L -6373.8438,977.78125 C -6373.8439,938.0375 -6429.6644,906.0625 -6499,906.0625 L -6533.875,906.0625 C -6536.4584,849.41732 -6577.3413,800.2959 -6637.875,772.65625 L -6680.0625,734.5 C -6613.662,735.22507 -6541.798,717.77607 -6511.7812,709.6875 C -6466.384,444.41438 -6618.714,200.95136 -6805.4784,60.199057 C -6759.0819,68.903695 -6730.5029,55.631835 -6730.5029,55.631835 C -6622.0373,84.505444 -6586.8821,165.76325 -6535,235.1875 C -6511.808,246.47541 -6372.8958,249.66547 -6361.125,227.125 C -6347.2511,178.28611 -6317.8499,101.6087 -6351.5,68.5 C -6421.8378,31.5386 -6453.8498,21.28843 -6478.8438,2.09375 C -6466.208,2.5199299 -6455.2899,-8.4978496 -6454.6562,-17.53125 C -6409.8628,24.093031 -6315.3325,-1.7358896 -6326.5312,-37.65625 C -6304.9151,0.94682973 -6199.7213,-8.2510296 -6208.375,-58.46875 C -6164.8945,-13.392308 -6074.5377,-42.83839 -6067.875,-80.625 C -6070.4521,-111.44117 -6073.6227,-116.73571 -6088,-137.4375 C -6066.1599,-177.22341 -6046.7438,-228.31244 -6093.625,-243.5625 C -6119.2398,-250.67676 -6165.7706,-245.47036 -6191.375,-252.25 C -6213.6931,-270.04504 -6250.1004,-357.04249 -6278.75,-360.21875 C -6348.3103,-358.23808 -6420.9528,-321.37012 -6488.75,-305.96875 C -6488.7502,-305.96875 -6636.7027,-330.33265 -6725.5312,-355.875 C -6692.3381,-354.17889 -6601.6184,-472.13296 -6777.7188,-543.46875 C -6793.8842,-550.74032 -6859.6288,-565.18427 -6836.2006,-524.00413 C -6880.1711,-587.60802 -6945.3517,-557.62007 -6980.2853,-497.47985 C -6989.6517,-499.42532 -6998.1142,-501.45894 -7015.3125,-503.1875 C -6932.3489,-556.75869 -6783.9274,-620.81898 -6701.5015,-675.16942 C -6787.8556,-692.69144 -6939.5529,-699.38326 -7026,-716.4375 z M -7156.1562,-450 C -7157.0318,-449.48617 -7157.898,-448.93963 -7158.7812,-448.40625 C -7158.7392,-448.74992 -7158.6983,-449.09383 -7158.6562,-449.4375 C -7157.8245,-449.62713 -7156.9898,-449.81466 -7156.1562,-450 z " style="opacity:1;color:black;fill:#5c3566;fill-opacity:1;fill-rule:nonzero;stroke:none;stroke-width:0.61872041;stroke-linecap:butt;stroke-linejoin:miter;marker:none;marker-start:none;marker-mid:none;marker-end:none;stroke-miterlimit:4;stroke-dasharray:none;stroke-dashoffset:0;stroke-opacity:1;visibility:visible;display:inline;overflow:visible"/>
      <path sodipodi:nodetypes="ccccccccccsccsccccccccccccccccccccccccccccccccccccccccccccccccccssscscsccscsccsccccccscccccccccccccccccccccccccc" id="path2765" d="M -7019.875,-672.125 L -7133.0312,-542.6875 L -7083.7188,-654 L -7181.5625,-603.8125 L -7236.7812,-493.34375 L -7213.9375,-596.09375 L -7287.625,-571.78125 L -7322.9688,-490 L -7203.75,-359.90625 L -7188.7812,-435.9375 C -7194.2924,-338.37019 -7157.5937,-280.15624 -7157.5938,-280.15625 C -7201.6362,-319.06925 -7325.8769,-452.58216 -7398.7812,-491.125 C -7418.7814,-276.83929 -7181.4375,-225.4375 -7181.4375,-225.4375 C -7193.1696,-215.12559 -7220.5263,-208.90886 -7220.5263,-208.90886 C -7362.141,-52.89316 -7190.927,70.846058 -7182.8125,269.5625 C -7211.3125,121.21875 -7419.4005,-49.758847 -7268.1555,-224.28538 C -7337.0022,-237.82597 -7363.375,-292.59375 -7363.375,-292.59375 L -7446.7188,-207.1875 L -7426.8438,-138.65625 L -7347.5625,-167.40625 L -7419.2188,-107.375 L -7412.8125,-13.25 L -7340.4375,-50.65625 L -7395.625,21.65625 L -7375.3125,94.5625 L -7308.5625,60.6875 L -7370.375,125.03125 L -7358.0625,194.0625 L -7281.5625,174.25 L -7346.6562,232 L -7361.0938,327.625 L -7254.875,291.09375 L -7366.4688,359.6875 L -7392.5,443 L -7305,413.3125 L -7500.5999,542.71669 L -7502.7238,618.91244 C -7434.3293,567.08351 -7331.1913,600.04914 -7211.5,402.53125 C -7288.8126,608.92452 -7378.1198,606.25941 -7427.4688,624.78125 L -7424.5938,681.15625 C -7375.1622,691.02842 -7241.5566,701.7715 -7186.8438,707.25 C -7188.4357,718.00336 -7260.0939,777.12534 -7260.0937,798.25 C -7303.4691,810.57109 -7356.5002,840.33493 -7373.25,883.59375 C -7380.7653,903.79673 -7377.8329,925.86302 -7379.2812,947.03125 C -7425.9173,949.16531 -7474.713,940.66465 -7519.0938,958.84375 C -7533.2337,963.08108 -7547.1448,977.87692 -7541.7188,993.46875 C -7522.5969,1023.6819 -7481.8225,1030.4253 -7449.4688,1037.7812 C -7449.4688,1037.7812 -7514.3881,1066.3878 -7505.1875,1090.5625 C -7450.8986,1149.015 -6450.5625,1126.6767 -6414.625,1091.1875 C -6438.045,1066.0848 -6488.4375,1032.375 -6488.4375,1032.375 C -6460.5704,1031.4349 -6403.0272,1012.7866 -6416.4688,975.5 C -6424.7129,961.76001 -6441.8393,957.51503 -6456.0625,952.6875 C -6492.406,943.20339 -6530.5851,948.52595 -6567.7188,946.625 C -6572.9112,947.59271 -6580.3573,943.99727 -6578.2812,937.78125 C -6567.3757,903.36986 -6582.4266,865.40762 -6607.375,841.21875 C -6627.0688,822.23815 -6652.5778,810.28614 -6677.9375,800.40625 C -6677.9375,800.40625 -6735.4375,737.96875 -6735.4375,737.96875 C -6838.9436,744.26316 -6995.0477,730.12363 -7072.125,714.71875 C -6909.0577,716.82055 -6732.9811,703.91926 -6555.375,678.59375 C -6517.0676,424.92028 -6676.7781,223.274 -6843.6836,61.482262 C -6953.4442,49.868613 -7052.2359,-17.083373 -7096.125,-60.375 C -6964.8045,45.968882 -6749.1322,34.37956 -6736.7379,26.942949 C -6736.7379,26.942949 -6531.569,80.80628 -6514.25,201.90625 C -6485.6063,211.71099 -6403.9641,211.17436 -6390.875,195.96875 C -6393.5002,162.19172 -6368.9499,95.60276 -6377.0312,92.75 C -6460.6874,63.21978 -6507.7742,-1.6588 -6518.6875,7.40625 C -6531.2366,17.830033 -6484.968,49.291685 -6446.9133,78.338679 C -6427.2161,93.373424 -6409.7195,107.76126 -6403.7188,118.25 C -6403.7188,118.25 -6439.9457,158.52806 -6510.6562,110.25 C -6542.4677,88.53051 -6628.8439,-36.36254 -6651.625,-42.4375 C -6651.625,-42.4375 -6836.7041,-118.13901 -6876.0625,-141.90625 C -6876.0625,-141.90624 -6918.0326,-147.62495 -6954.6875,-49.3125 C -6963.0596,-177.06395 -6865.878,-176.7495 -6802.6562,-200.78125 C -6819.4749,-184.27587 -6839.7958,-168.66496 -6859.1875,-155.59375 C -6859.1875,-155.59374 -6675.6186,-67.83855 -6665.125,-66.03125 C -6628.8711,-66.66624 -6276.907,-254.11598 -6113.6722,-156.85692 C -6113.6723,-156.85692 -6090.8572,-168.88394 -6108,-200.3125 C -6162.4893,-240.19247 -6240.113,-222.10698 -6301.6562,-222.1875 C -6304.4794,-226.03278 -6234.6519,-245.44023 -6237.8438,-250.15625 C -6254.8676,-275.30978 -6275.9856,-309.73802 -6288.75,-320.375 C -6446.4308,-283.11263 -6527.9976,-259.61374 -6641,-215.96875 L -6561.0312,-275.0625 L -6909.0625,-408.4375 L -6904.0625,-336.09375 C -6912.3689,-322.2496 -7012.4862,-397.91611 -6982.5021,-468.91735 C -7021.5321,-475.97208 -7050.9256,-483.85743 -7076.5625,-482.625 C -7081.125,-482.40567 -7124.4687,-472.8125 -7124.4687,-472.8125 L -6819.7605,-651.875 L -7019.875,-672.125 z M -7340.875,-389.78125 C -7312.354,-366.44633 -7273.2274,-350.44313 -7243,-311.75 C -7241.2825,-311.18512 -7312.9677,-314.13621 -7340.875,-389.78125 z M -6884.3125,-329.03125 C -6833.2306,-329.14341 -6787.7949,-318.82318 -6754.5938,-271.625 C -6786.8317,-314.14198 -6973.505,-304.30038 -7027.375,-295.125 C -7027.3752,-297.09634 -6981.1525,-327.54617 -6913.2188,-328.0625 C -6903.4126,-328.63075 -6893.7721,-329.01048 -6884.3125,-329.03125 z M -6851.625,79.375 C -6886.0593,155.38142 -7015.9058,167.05096 -7014.4062,164.65625 L -6851.625,79.375 z M -6855.5625,119.3125 C -6875.1502,191.0959 -6980.8654,220.6984 -6979.9062,218.375 L -6855.5625,119.3125 z M -6858.5938,189.21875 C -6875.1679,249.06373 -6964.0909,273.65554 -6963.2812,271.71875 L -6858.5938,189.21875 z M -6862.2188,239.625 C -6873.1394,283.79056 -6940.9078,306.38173 -6940.3438,304.9375 L -6862.2188,239.625 z M -6859.25,277.6875 C -6863.604,313.7972 -6919.6969,341.30468 -6919.375,340.09375 L -6859.25,277.6875 z " style="opacity:1;color:black;fill:#75507b;fill-opacity:1;fill-rule:nonzero;stroke:none;stroke-width:0.61872041;stroke-linecap:butt;stroke-linejoin:miter;marker:none;marker-start:none;marker-mid:none;marker-end:none;stroke-miterlimit:4;stroke-dasharray:none;stroke-dashoffset:0;stroke-opacity:1;visibility:visible;display:inline;overflow:visible"/>
      <path sodipodi:nodetypes="csccccscccccccccscc" id="path2769" d="M -6222.4745,-135.35268 C -6225.4823,-108.298 -6203.9644,-75.34598 -6178.2331,-68.85268 C -6152.5508,-62.37176 -6100.7148,-63.6424 -6093.4652,-80.55804 C -6084.1191,-105.48093 -6112.4597,-135.83885 -6143.3447,-148.48661 C -6172.3435,-158.55918 -6211.3115,-178.77387 -6222.4745,-135.35268 z M -6333.8247,-115.88314 C -6336.8325,-88.82844 -6317.4914,-49.39977 -6285.8983,-42.08929 C -6252.9507,-34.46541 -6223.9831,-65.22768 -6223.9831,-65.22768 C -6220.9753,-92.28237 -6255.1918,-136.96094 -6280.9965,-143.15625 C -6308.7912,-148.98883 -6321.0426,-143.12742 -6333.8247,-115.88314 z M -6446.3788,-101.52393 C -6459.4135,-77.11894 -6459.2196,-54.52858 -6428.6438,-32.96875 C -6405.8673,-21.12685 -6380.9503,-19.06428 -6348.3938,-38.59821 C -6340.261,-64.56696 -6362.4919,-102.78985 -6386.6325,-113.81329 C -6409.6462,-123.78131 -6433.1185,-120.92747 -6446.3788,-101.52393 z M -6604.4461,-54.43829 C -6605.8747,-53.00972 -6559.4117,2.5401904 -6496.5545,-16.03125 C -6452.1818,-29.14138 -6492.2822,-88.72401 -6509.4548,-88.724 C -6545.9831,-82.22429 -6568.2572,-72.85927 -6604.4461,-54.43829 z " style="opacity:1;color:black;fill:white;fill-opacity:1;fill-rule:nonzero;stroke:none;stroke-width:0.61872041;stroke-linecap:butt;stroke-linejoin:miter;marker:none;marker-start:none;marker-mid:none;marker-end:none;stroke-miterlimit:4;stroke-dasharray:none;stroke-dashoffset:0;stroke-opacity:1;visibility:visible;display:inline;overflow:visible"/>
      <path sodipodi:nodetypes="ccccccc" id="path2773" d="M -6886.1617,-525.90625 C -6983.6727,-513.24444 -6947.5749,-396.12439 -6908.2241,-329.8125 C -6867.3757,-326.56103 -6800.6537,-300.82493 -6787.6789,-382.93909 C -6731.2391,-336.40633 -6677.0985,-383.54017 -6709.5406,-444.03283 C -6748.5488,-512.50813 -6794.8931,-525.25005 -6817.2139,-516.84296 C -6838.3257,-507.33174 -6803.2027,-498.577 -6800.0289,-446.2289 C -6817.9436,-498.00784 -6864.5402,-525.96151 -6886.1617,-525.90625 z " style="opacity:1;color:black;fill:white;fill-opacity:1;fill-rule:nonzero;stroke:none;stroke-width:0.61872041;stroke-linecap:butt;stroke-linejoin:miter;marker:none;marker-start:none;marker-mid:none;marker-end:none;stroke-miterlimit:4;stroke-dasharray:none;stroke-dashoffset:0;stroke-opacity:1;visibility:visible;display:inline;overflow:visible"/>
      <path id="path2775" d="M -6824.7158,-426.07143 C -6834.7709,-426.07143 -6842.9651,-412.8812 -6842.9652,-396.63839 C -6842.9652,-380.3956 -6834.7709,-367.20536 -6824.7158,-367.20536 C -6814.6607,-367.20536 -6806.5098,-380.39562 -6806.5098,-396.63839 C -6806.5098,-412.88119 -6814.6608,-426.07142 -6824.7158,-426.07143 z M -6833.2986,-413.11049 C -6828.9479,-413.11049 -6825.4093,-408.8049 -6825.4093,-403.48732 C -6825.4093,-398.16974 -6828.9479,-393.86415 -6833.2986,-393.86415 C -6837.6493,-393.86413 -6841.1879,-398.16974 -6841.1879,-403.48732 C -6841.1879,-408.8049 -6837.6493,-413.11049 -6833.2986,-413.11049 z " style="opacity:1;color:black;fill:#5c3566;fill-opacity:1;fill-rule:nonzero;stroke:none;stroke-width:0.61872041;stroke-linecap:butt;stroke-linejoin:miter;marker:none;marker-start:none;marker-mid:none;marker-end:none;stroke-miterlimit:4;stroke-dasharray:none;stroke-dashoffset:0;stroke-opacity:1;visibility:visible;display:inline;overflow:visible"/>
      <path style="opacity:1;color:black;fill:#5c3566;fill-opacity:1;fill-rule:nonzero;stroke:none;stroke-width:0.61872041;stroke-linecap:butt;stroke-linejoin:miter;marker:none;marker-start:none;marker-mid:none;marker-end:none;stroke-miterlimit:4;stroke-dasharray:none;stroke-dashoffset:0;stroke-opacity:1;visibility:visible;display:inline;overflow:visible" d="M -6764.1785,-439.50799 C -6774.2336,-439.50799 -6782.4278,-426.31776 -6782.4279,-410.07495 C -6782.4279,-393.83216 -6774.2336,-380.64192 -6764.1785,-380.64192 C -6754.1234,-380.64192 -6745.9725,-393.83218 -6745.9725,-410.07495 C -6745.9725,-426.31775 -6754.1235,-439.50798 -6764.1785,-439.50799 z M -6772.7613,-426.54705 C -6768.4106,-426.54705 -6764.872,-422.24146 -6764.872,-416.92388 C -6764.872,-411.6063 -6768.4106,-407.30071 -6772.7613,-407.30071 C -6777.112,-407.30069 -6780.6506,-411.6063 -6780.6506,-416.92388 C -6780.6506,-422.24146 -6777.112,-426.54705 -6772.7613,-426.54705 z " id="path2777"/>
    </g>
  </g>
</svg>