# Blender v2.82 (sub 7) OBJ File: 'person.blend'
# www.blender.org
mtllib person_2.mtl
o Cube
v 0.923657 2.902635 0.079451
v 0.702093 1.004156 0.093383
v 0.923657 2.902635 0.789464
v 0.702093 1.004156 0.794311
v -0.887751 2.902635 0.079451
v -0.686555 1.008929 0.093383
v -0.887751 2.902635 0.789464
v -0.686555 1.008929 0.794311
v -1.000361 3.513705 0.780616
v 1.010182 3.513705 0.085364
v -1.000361 3.513705 0.085364
v 2.515239 3.151803 0.273381
v 2.515239 3.151803 0.614313
v 2.554007 3.456175 0.273381
v 2.554007 3.456175 0.614313
v -0.011378 0.822047 0.038794
v 0.005434 2.812567 0.911132
v -0.011378 0.822047 0.833251
v 0.005434 2.812567 -0.140805
v 0.000000 3.493465 0.900073
v 0.000000 3.493465 -0.133414
v -0.957434 -0.734043 0.132323
v -0.957434 -0.734043 0.755370
v -0.474821 -0.734043 0.132323
v -0.474821 -0.734043 0.755370
v 0.332055 -0.765869 0.755370
v 0.843651 -0.765869 0.755370
v 0.843651 -0.765869 0.132323
v 0.332055 -0.765869 0.132323
v -2.462384 3.151803 0.614313
v -2.462384 3.151803 0.273381
v -2.508397 3.456175 0.614313
v -2.508397 3.456175 0.273381
v 0.000000 3.769331 0.827531
v -0.329560 3.840026 0.186996
v -0.329560 3.840026 0.697030
v 0.329560 3.840026 0.697030
v 0.329560 3.840026 0.186996
v -0.000000 3.769331 0.014680
v -0.463654 3.769331 0.729160
v 0.463654 3.769331 0.136524
v 1.010182 3.513705 0.780616
v 0.463654 3.769331 0.729160
v -0.463654 3.769331 0.136524
v 0.000000 3.840026 0.779362
v -0.000000 3.840026 0.104663
v 0.322674 4.060998 0.179639
v -0.000000 4.060998 0.072328
v 0.000000 4.060998 0.805092
v -0.320139 4.060998 0.698919
v 0.320139 4.060998 0.698919
v -0.322674 4.060998 0.179639
v -0.000000 4.135376 -0.201517
v 0.000000 4.188308 0.996581
v -0.000000 4.729673 -0.221280
v -0.000000 4.973107 -0.056879
v 0.000000 4.753620 1.006070
v 0.000000 4.983356 0.862383
v -0.269778 4.436262 -0.216915
v -0.456303 4.422761 -0.044387
v 0.269778 4.436262 -0.216915
v 0.456303 4.422761 -0.044387
v -0.000000 4.418736 -0.305850
v 0.286882 4.143067 -0.171222
v 0.455547 4.137519 0.065585
v -0.284347 4.188308 0.977864
v -0.453012 4.177211 0.741057
v 0.453012 4.177211 0.741057
v 0.284347 4.188308 0.977864
v -0.455547 4.137519 0.065585
v -0.286882 4.143067 -0.171222
v 0.456303 4.725804 0.000309
v 0.269778 4.736517 -0.173775
v 0.455163 4.972260 0.226844
v 0.264094 4.973107 -0.018991
v -0.456303 4.686547 0.805196
v -0.269778 4.742523 0.979280
v -0.455163 4.972260 0.578661
v -0.264094 4.983356 0.824496
v 0.264094 4.983356 0.824496
v 0.455163 4.972260 0.578661
v 0.456303 4.686547 0.805196
v 0.269778 4.742523 0.979280
v -0.264094 4.973107 -0.018991
v -0.455163 4.972260 0.226844
v -0.456303 4.725804 0.000309
v -0.269778 4.736517 -0.173775
v 0.220797 5.042486 0.068907
v 0.380538 5.042486 0.283708
v -0.220797 5.042486 0.736598
v -0.380538 5.042486 0.521796
v -0.380538 5.042486 0.283708
v -0.220797 5.042486 0.068907
v 0.380538 5.042486 0.521796
v 0.220797 5.042486 0.736598
v -0.000000 5.042486 0.037223
v 0.000000 5.042486 0.768282
v 0.156632 5.095257 0.168910
v 0.268437 5.095257 0.317572
v -0.156632 5.095257 0.636595
v -0.268437 5.095257 0.487933
v -0.268437 5.095257 0.317572
v -0.156632 5.095257 0.168910
v 0.268437 5.095257 0.487933
v 0.156632 5.095257 0.636595
v -0.000000 5.095257 0.141936
v 0.000000 5.095257 0.663569
vt 0.342311 0.002959
vt 0.219104 0.137960
vt 0.267699 0.211367
vt 0.021655 0.263874
vt 0.000000 0.345163
vt 0.257638 0.347247
vt 0.005075 0.185040
vt 0.537315 0.738502
vt 0.463336 0.821166
vt 0.641090 0.962718
vt 0.003515 0.510275
vt 0.218192 0.559650
vt 0.267498 0.486546
vt 0.466614 0.292124
vt 0.463336 0.383495
vt 0.703789 0.331094
vt 0.848334 0.039597
vt 0.870214 0.054148
vt 0.904113 0.036664
vt 0.341943 0.697688
vt 0.784972 0.314757
vt 0.737178 0.439913
vt 0.350062 0.346520
vt 0.369582 0.678155
vt 0.351463 0.675472
vt 0.680845 0.012306
vt 0.690110 0.215099
vt 0.762789 0.189390
vt 0.356985 0.489554
vt 0.385528 0.700327
vt 0.447070 0.510648
vt 0.390390 0.281053
vt 0.357635 0.205167
vt 0.502574 0.461189
vt 0.765903 0.931719
vt 1.000000 0.945205
vt 1.000000 0.830659
vt 0.020876 0.431484
vt 0.785291 0.850681
vt 0.732495 0.836749
vt 0.408365 0.700327
vt 0.321817 0.710123
vt 0.349253 0.909838
vt 0.801049 0.876630
vt 0.977540 0.726444
vt 0.921553 0.627207
vt 0.653676 0.908670
vt 0.732495 0.943501
vt 0.622841 0.667984
vt 0.258604 0.705381
vt 0.231566 0.905274
vt 0.321817 0.920483
vt 0.732495 0.627207
vt 0.385740 0.000000
vt 0.351854 0.025289
vt 0.447211 0.183837
vt 0.814750 0.437342
vt 0.809890 0.627207
vt 0.813362 0.246261
vt 0.838431 0.366147
vt 0.390114 0.412213
vt 0.463336 0.434640
vt 0.463034 0.414324
vt 0.829840 0.259227
vt 0.822143 0.306986
vt 0.463336 0.258488
vt 0.401539 0.298648
vt 0.388257 0.346605
vt 0.401297 0.394602
vt 0.848334 0.347662
vt 0.463100 0.278765
vt 0.922689 0.364797
vt 0.920607 0.396743
vt 0.956792 0.396810
vt 0.904492 0.129850
vt 0.870556 0.112774
vt 0.849047 0.127355
vt 0.938153 0.053872
vt 0.959915 0.039143
vt 0.938288 0.112499
vt 0.959915 0.126905
vt 0.213182 0.870717
vt 0.225738 0.834455
vt 0.168009 0.822956
vt 0.873170 0.169736
vt 0.909293 0.201899
vt 0.909806 0.166152
vt 0.156716 0.707998
vt 0.174083 0.800583
vt 0.195651 0.700327
vt 0.884207 0.396605
vt 0.886640 0.429101
vt 0.944465 0.317705
vt 0.908039 0.292110
vt 0.907618 0.320900
vt 0.133958 0.883672
vt 0.068776 0.962843
vt 0.165488 0.932021
vt 0.147702 0.865018
vt 0.192580 0.903093
vt 0.949019 0.216061
vt 0.946358 0.170757
vt 0.137432 0.834136
vt 0.125019 0.853056
vt 0.065363 0.748905
vt 0.056217 0.723064
vt 0.002137 0.768985
vt 0.160862 0.845440
vt 0.886762 0.364055
vt 0.849992 0.359081
vt 0.848334 0.396549
vt 0.922568 0.428772
vt 0.850725 0.199703
vt 0.869245 0.214896
vt 0.967971 0.287667
vt 0.947121 0.279516
vt 0.848334 0.285924
vt 0.870918 0.316599
vt 0.869403 0.278380
vt 0.967970 0.201377
vt 0.957516 0.361766
vt 0.970188 0.322984
vt 0.927611 0.333541
vt 0.099923 0.869524
vt 0.927305 0.460345
vt 0.970188 0.471103
vt 0.957523 0.431980
vt 0.141818 0.782680
vt 0.144512 0.812627
vt 0.887238 0.331944
vt 0.848620 0.320900
vt 0.886923 0.460935
vt 0.849985 0.433915
vt 0.848551 0.471830
vt 0.072975 0.772916
vt 0.030747 0.782763
vt 0.025847 0.830901
vt 0.000000 0.839840
vt 0.056581 0.883913
vt 0.126232 0.739794
vt 0.135029 0.810170
vt 0.117203 0.847180
vt 0.063573 0.864319
vt 0.129982 0.782719
vt 0.088267 0.847148
vt 0.118471 0.824999
vt 0.055096 0.794495
vt 0.122816 0.808983
vt 0.115069 0.757807
vt 0.049346 0.821919
vt 0.102435 0.773480
vt 0.092721 0.860375
vt 0.108663 0.838384
vt 0.128082 0.829629
vt 0.068083 0.844608
vt 0.903964 0.000000
vt 0.717221 0.000000
vt 0.408365 0.919023
vt 0.685351 0.905294
vt 0.321817 0.700327
vt 0.370035 0.022179
vt 0.848334 0.624705
vt 0.836342 0.304017
vt 0.399966 0.346634
vt 0.904640 0.166152
vt 0.231566 0.711803
vt 0.231566 0.795256
vt 0.100082 0.983862
vt 0.050600 0.927561
vt 0.116940 0.787571
vn -0.1563 -0.9877 0.0000
vn -0.0681 -0.0384 0.9969
vn -0.9944 -0.1057 0.0000
vn -0.9774 -0.2114 0.0000
vn 0.9933 -0.1159 0.0000
vn 0.0989 -0.0902 -0.9910
vn 0.2423 -0.0247 -0.9699
vn 0.1547 -0.9880 0.0000
vn -0.2386 0.0086 -0.9711
vn 0.1297 0.0171 0.9914
vn 0.9920 -0.1263 0.0000
vn 0.1221 -0.0077 -0.9925
vn 0.1096 -0.0011 0.9940
vn 0.0372 0.9993 0.0000
vn -0.1335 0.0150 0.9909
vn 0.2321 0.0124 -0.9726
vn -0.1010 0.3958 0.9128
vn -0.2424 -0.0329 -0.9696
vn 0.9584 -0.2854 0.0000
vn 0.1326 -0.0129 0.9911
vn 0.0000 -1.0000 0.0000
vn -0.0897 -0.0331 -0.9954
vn -0.0659 -0.0303 0.9974
vn -0.9881 0.1536 0.0000
vn 0.0634 -0.0352 0.9974
vn 0.0864 -0.0400 -0.9955
vn 0.9968 0.0797 0.0000
vn -0.9888 -0.1495 0.0000
vn -0.1115 -0.0062 0.9937
vn -0.0381 0.9993 0.0000
vn -0.1243 -0.0133 -0.9922
vn 0.1695 0.5288 -0.8316
vn -0.1714 0.5266 -0.8326
vn 0.0999 0.3973 0.9123
vn 0.4664 0.8846 0.0000
vn 0.1649 0.7609 -0.6276
vn 0.4237 0.9058 0.0000
vn -0.4300 0.9028 0.0000
vn -0.1591 0.6424 0.7497
vn 0.1591 0.6424 0.7497
vn -0.1649 0.7609 -0.6276
vn -0.4664 0.8846 0.0000
vn 0.1306 0.5549 -0.8216
vn 0.2424 0.0020 0.9702
vn -0.2423 -0.0247 -0.9699
vn -0.9991 0.0426 0.0000
vn -0.2424 0.0020 0.9702
vn 0.9991 0.0426 -0.0000
vn 0.0657 -0.0008 0.9978
vn 0.0535 -0.9637 -0.2617
vn 1.0000 0.0000 -0.0000
vn -0.2883 0.2513 -0.9240
vn -0.0364 -0.8322 0.5533
vn -1.0000 -0.0067 0.0021
vn -0.0657 -0.0008 0.9978
vn -0.0780 -0.9690 -0.2346
vn -0.1196 0.5388 0.8339
vn 0.0848 0.8020 -0.5913
vn 0.1054 0.5273 0.8431
vn 0.1078 -0.1469 -0.9833
vn -0.1306 0.5549 -0.8216
vn 0.3160 -0.9162 -0.2465
vn -0.5241 -0.7473 0.4083
vn 0.5241 -0.7473 0.4083
vn -0.3160 -0.9162 -0.2465
vn 0.6878 0.4930 -0.5329
vn -0.7214 0.4320 0.5412
vn -0.6878 0.4930 -0.5329
vn 0.7214 0.4320 0.5412
vn 0.7918 -0.2215 -0.5692
vn 0.6848 0.0161 0.7286
vn -0.6817 0.1068 -0.7238
vn -0.8103 -0.0784 0.5808
vn 0.2883 0.2513 -0.9240
vn -0.7918 -0.2215 -0.5692
vn 0.6817 0.1068 -0.7238
vn -0.1078 -0.1469 -0.9833
vn 0.0623 0.8986 -0.4342
vn -0.4902 0.7852 -0.3783
vn 0.4902 0.7852 -0.3783
vn -0.0848 0.8020 -0.5912
vn 0.4655 0.8234 0.3246
vn -0.4655 0.8234 0.3246
vn -0.6853 0.7282 0.0000
vn -0.0761 0.8443 0.5305
vn 0.6853 0.7282 -0.0000
vn 0.0761 0.8443 0.5305
vn 0.0000 1.0000 0.0000
vn 0.3441 0.9034 0.2559
vn 0.3441 0.9034 -0.2559
vn -0.0623 0.8986 -0.4342
vn 0.4259 0.9048 0.0000
vn -0.3441 0.9034 0.2559
vn -0.0623 0.8986 0.4342
vn -0.4259 0.9048 0.0000
vn -0.3441 0.9034 -0.2559
vn 0.0623 0.8986 0.4342
vn -0.1361 -0.0119 0.9906
vn 0.2363 -0.0347 -0.9711
vn 0.3126 -0.1375 -0.9399
vn -0.2141 -0.0300 -0.9763
vn 0.1175 -0.0023 0.9931
vn 0.1203 -0.0153 -0.9926
vn 0.1066 -0.0136 0.9942
vn -0.1187 -0.0075 0.9929
vn 0.2120 -0.0206 -0.9770
vn -0.2010 0.2491 0.9474
vn -0.1046 -0.0885 -0.9906
vn 0.0645 -0.0396 0.9971
vn 0.0000 -0.0223 -0.9998
vn 0.0000 -0.0223 0.9998
vn 0.0000 -0.0220 0.9998
vn 0.0000 -0.0220 -0.9998
vn -0.1090 -0.0165 0.9939
vn -0.1230 -0.0186 -0.9922
vn 0.2256 0.4608 -0.8584
vn -0.2256 0.4608 -0.8584
vn 0.2010 0.2491 0.9474
vn 0.1525 0.7771 -0.6106
vn -0.2022 0.5514 0.8093
vn 0.2022 0.5514 0.8093
vn -0.1525 0.7771 -0.6106
vn 0.1190 0.5456 -0.8296
vn 0.3129 -0.1099 0.9434
vn -0.3126 -0.1375 -0.9399
vn -0.9995 0.0313 0.0049
vn -0.3129 -0.1099 0.9434
vn 0.9995 0.0313 0.0049
vn 0.0981 -0.0167 0.9950
vn 0.0780 -0.9690 -0.2346
vn 1.0000 -0.0012 0.0038
vn 1.0000 -0.0067 0.0021
vn 1.0000 0.0040 -0.0000
vn 1.0000 0.0044 0.0002
vn -0.1683 0.1402 -0.9757
vn -0.1413 -0.8936 0.4260
vn -1.0000 -0.0012 0.0038
vn -1.0000 0.0000 0.0000
vn -1.0000 0.0044 0.0002
vn -1.0000 0.0040 0.0000
vn -0.0981 -0.0167 0.9950
vn 0.1413 -0.8936 0.4260
vn 0.0364 -0.8322 0.5533
vn -0.6578 -0.7532 0.0032
vn -0.5313 -0.8456 0.0517
vn -0.0535 -0.9637 -0.2617
vn -0.1054 0.5273 0.8431
vn 0.1196 0.5388 0.8339
vn 0.3149 -0.3279 -0.8907
vn -0.1190 0.5456 -0.8296
vn 0.6578 -0.7532 0.0032
vn 0.5313 -0.8456 0.0517
vn 0.6270 0.4370 -0.6449
vn -0.6859 0.4048 0.6047
vn -0.6270 0.4370 -0.6449
vn 0.6859 0.4048 0.6047
vn 0.6742 -0.0752 -0.7347
vn 0.8103 -0.0784 0.5808
vn -0.6794 0.1044 -0.7263
vn -0.6848 0.0161 0.7286
vn 0.1683 0.1402 -0.9757
vn -0.6742 -0.0752 -0.7347
vn 0.6794 0.1044 -0.7263
vn -0.3149 -0.3279 -0.8907
vn 0.0773 0.8903 -0.4487
vn -0.4809 0.8006 -0.3576
vn 0.4809 0.8006 -0.3576
vn -0.0848 0.8020 -0.5913
vn 0.4809 0.8006 0.3576
vn -0.4809 0.8006 0.3576
vn 0.3458 0.9015 0.2601
vn 0.3458 0.9015 -0.2601
vn -0.0773 0.8903 -0.4487
vn -0.3458 0.9015 0.2601
vn -0.0773 0.8903 0.4487
vn -0.3458 0.9015 -0.2601
vn 0.0773 0.8903 0.4487
usemtl Material
s off
f 31/1/1 5/2/1 7/3/1
f 8/4/2 18/5/2 17/6/2
f 6/7/3 8/4/3 7/3/3
f 18/8/4 16/9/4 29/10/4
f 2/11/5 1/12/5 3/13/5
f 2/14/6 16/15/6 19/16/6
f 47/17/7 38/18/7 46/19/7
f 3/13/8 1/12/8 12/20/8
f 21/21/9 19/16/9 5/22/9
f 20/23/10 17/6/10 3/13/10
f 15/24/11 13/25/11 12/20/11
f 12/26/12 1/27/12 10/28/12
f 42/29/13 3/13/13 13/25/13
f 14/30/14 10/31/14 42/29/14
f 7/3/15 17/6/15 20/23/15
f 1/27/16 19/16/16 21/21/16
f 40/32/17 9/33/17 20/23/17
f 6/34/18 5/22/18 19/16/18
f 24/35/19 16/36/19 18/37/19
f 4/38/20 3/13/20 17/6/20
f 23/39/21 22/40/21 24/35/21
f 6/41/22 16/42/22 24/43/22
f 25/44/23 18/37/23 8/45/23
f 8/45/24 6/46/24 22/40/24
f 26/47/21 29/10/21 28/48/21
f 4/49/25 18/8/25 26/47/25
f 29/50/26 16/51/26 2/52/26
f 28/48/27 2/53/27 4/49/27
f 33/54/28 31/1/28 30/55/28
f 30/55/29 7/3/29 9/33/29
f 9/33/30 11/56/30 33/54/30
f 11/57/31 5/22/31 31/58/31
f 41/59/32 10/28/32 21/21/32
f 21/21/33 11/57/33 44/60/33
f 20/23/34 42/29/34 43/61/34
f 43/61/35 41/62/35 38/63/35
f 38/64/36 41/59/36 39/65/36
f 10/31/37 41/62/37 43/61/37
f 40/32/38 44/66/38 11/56/38
f 36/67/39 40/32/39 34/68/39
f 34/68/40 43/61/40 37/69/40
f 39/65/41 44/60/41 35/70/41
f 35/71/42 44/66/42 40/32/42
f 73/72/43 55/73/43 56/74/43
f 45/75/44 37/76/44 51/77/44
f 46/19/45 35/78/45 52/79/45
f 35/78/46 36/80/46 50/81/46
f 50/81/47 36/80/47 45/75/47
f 51/77/48 37/76/48 38/18/48
f 54/82/49 69/83/49 83/84/49
f 64/85/50 48/86/50 53/87/50
f 72/88/51 82/89/51 62/90/51
f 55/73/52 63/91/52 59/92/52
f 66/93/53 49/94/53 54/95/53
f 76/96/54 60/97/54 67/98/54
f 77/99/55 66/100/55 54/82/55
f 52/101/56 71/102/56 48/86/56
f 58/103/57 79/104/57 77/99/57
f 88/105/58 75/106/58 56/107/58
f 58/103/59 57/108/59 83/84/59
f 61/109/60 64/110/60 53/111/60
f 56/74/61 55/73/61 87/112/61
f 64/85/62 65/113/62 47/114/62
f 66/93/63 67/115/63 50/116/63
f 68/117/64 69/118/64 51/119/64
f 70/120/65 71/102/65 52/101/65
f 75/121/66 74/122/66 72/123/66
f 79/104/67 78/124/67 76/96/67
f 86/125/68 85/126/68 84/127/68
f 82/89/69 81/128/69 80/129/69
f 62/130/70 65/131/70 64/110/70
f 82/89/71 83/84/71 69/83/71
f 60/132/72 86/125/72 87/112/72
f 76/96/73 67/98/73 66/100/73
f 61/109/74 63/91/74 55/73/74
f 71/133/75 70/134/75 60/132/75
f 73/72/76 72/123/76 62/130/76
f 53/111/77 71/133/77 59/92/77
f 98/135/78 88/105/78 96/136/78
f 93/137/79 84/138/79 85/139/79
f 74/140/80 75/106/80 88/105/80
f 56/107/81 84/138/81 93/137/81
f 95/141/82 80/129/82 81/128/82
f 78/124/83 79/104/83 90/142/83
f 92/143/84 85/139/84 78/124/84
f 90/142/85 79/104/85 58/103/85
f 94/144/86 81/128/86 74/140/86
f 58/103/87 80/129/87 95/141/87
f 101/145/88 107/146/88 106/147/88
f 105/148/89 95/141/89 94/144/89
f 89/149/90 88/105/90 98/135/90
f 96/136/91 93/137/91 103/150/91
f 94/144/92 89/149/92 99/151/92
f 91/152/93 90/142/93 100/153/93
f 100/153/94 90/142/94 97/154/94
f 102/155/95 92/143/95 91/152/95
f 103/150/96 93/137/96 92/143/96
f 97/154/97 95/141/97 105/148/97
f 31/1/1 7/3/1 30/55/1
f 8/4/98 17/6/98 7/3/98
f 6/7/3 7/3/3 5/2/3
f 18/8/4 29/10/4 26/47/4
f 2/11/5 3/13/5 4/38/5
f 2/14/99 19/16/99 1/27/99
f 47/17/100 46/19/100 48/156/100
f 3/13/8 12/20/8 13/25/8
f 21/21/101 5/22/101 11/57/101
f 20/23/102 3/13/102 42/29/102
f 15/24/11 12/20/11 14/30/11
f 12/26/103 10/28/103 14/157/103
f 42/29/104 13/25/104 15/24/104
f 14/30/14 42/29/14 15/24/14
f 7/3/105 20/23/105 9/33/105
f 1/27/106 21/21/106 10/28/106
f 40/32/107 20/23/107 34/68/107
f 6/34/108 19/16/108 16/15/108
f 24/35/19 18/37/19 25/44/19
f 4/38/109 17/6/109 18/5/109
f 23/39/21 24/35/21 25/44/21
f 6/41/110 24/43/110 22/158/110
f 25/44/111 8/45/111 23/39/111
f 8/45/24 22/40/24 23/39/24
f 26/47/21 28/48/21 27/159/21
f 4/49/112 26/47/112 27/159/112
f 29/50/113 2/52/113 28/160/113
f 28/48/27 4/49/27 27/159/27
f 33/54/28 30/55/28 32/161/28
f 30/55/114 9/33/114 32/161/114
f 9/33/30 33/54/30 32/161/30
f 11/57/115 31/58/115 33/162/115
f 41/59/116 21/21/116 39/65/116
f 21/21/117 44/60/117 39/65/117
f 20/23/118 43/61/118 34/68/118
f 43/61/35 38/63/35 37/69/35
f 38/64/119 39/65/119 46/163/119
f 10/31/37 43/61/37 42/29/37
f 40/32/38 11/56/38 9/33/38
f 36/67/120 34/68/120 45/164/120
f 34/68/121 37/69/121 45/164/121
f 39/65/122 35/70/122 46/163/122
f 35/71/42 40/32/42 36/67/42
f 73/72/123 56/74/123 75/121/123
f 45/75/124 51/77/124 49/165/124
f 46/19/125 52/79/125 48/156/125
f 35/78/126 50/81/126 52/79/126
f 50/81/127 45/75/127 49/165/127
f 51/77/128 38/18/128 47/17/128
f 54/82/129 83/84/129 57/108/129
f 47/114/130 48/86/130 64/85/130
f 65/166/131 62/90/131 68/167/131
f 68/167/132 62/90/132 82/89/132
f 82/89/133 74/140/133 81/128/133
f 74/140/134 82/89/134 72/88/134
f 55/73/135 59/92/135 87/112/135
f 49/94/136 66/93/136 50/116/136
f 67/98/137 60/97/137 70/168/137
f 60/97/138 76/96/138 86/169/138
f 86/169/139 76/96/139 85/139/139
f 85/139/140 76/96/140 78/124/140
f 77/99/141 54/82/141 57/108/141
f 51/119/142 69/118/142 49/94/142
f 49/94/143 69/118/143 54/95/143
f 50/116/144 67/115/144 52/101/144
f 67/115/145 70/120/145 52/101/145
f 48/86/146 71/102/146 53/87/146
f 58/103/147 77/99/147 57/108/147
f 88/105/58 56/107/58 96/136/58
f 58/103/148 83/84/148 80/129/148
f 61/109/149 53/111/149 63/91/149
f 56/74/150 87/112/150 84/127/150
f 47/114/151 68/117/151 51/119/151
f 68/117/152 47/114/152 65/113/152
f 75/121/153 72/123/153 73/72/153
f 79/104/154 76/96/154 77/99/154
f 86/125/155 84/127/155 87/112/155
f 82/89/156 80/129/156 83/84/156
f 62/130/157 64/110/157 61/109/157
f 82/89/158 69/83/158 68/167/158
f 60/132/159 87/112/159 59/92/159
f 76/96/160 66/100/160 77/99/160
f 61/109/161 55/73/161 73/72/161
f 71/133/162 60/132/162 59/92/162
f 73/72/163 62/130/163 61/109/163
f 53/111/164 59/92/164 63/91/164
f 98/135/165 96/136/165 106/147/165
f 93/137/166 85/139/166 92/143/166
f 74/140/167 88/105/167 89/149/167
f 56/107/168 93/137/168 96/136/168
f 95/141/169 81/128/169 94/144/169
f 78/124/170 90/142/170 91/152/170
f 92/143/84 78/124/84 91/152/84
f 90/142/85 58/103/85 97/154/85
f 94/144/86 74/140/86 89/149/86
f 58/103/87 95/141/87 97/154/87
f 103/150/88 102/155/88 106/147/88
f 106/147/88 99/151/88 98/135/88
f 104/170/88 99/151/88 106/147/88
f 104/170/88 107/146/88 105/148/88
f 107/146/88 101/145/88 100/153/88
f 101/145/88 106/147/88 102/155/88
f 106/147/88 107/146/88 104/170/88
f 105/148/171 94/144/171 104/170/171
f 89/149/172 98/135/172 99/151/172
f 96/136/173 103/150/173 106/147/173
f 94/144/92 99/151/92 104/170/92
f 91/152/174 100/153/174 101/145/174
f 100/153/175 97/154/175 107/146/175
f 102/155/95 91/152/95 101/145/95
f 103/150/176 92/143/176 102/155/176
f 97/154/177 105/148/177 107/146/177
