# Blender v2.82 (sub 7) OBJ File: 'snake.blend'
# www.blender.org
mtllib snake.mtl
o Cylinder
v -5.000000 10.000000 0.000000
v 5.000000 10.000000 -0.000000
v -5.000000 8.535534 -3.535534
v 5.000000 8.535534 -3.535534
v -5.000000 5.000000 -5.000000
v 5.000000 5.000000 -5.000000
v -5.000000 1.464467 -3.535534
v 5.000000 1.464466 -3.535534
v -5.000000 0.000000 0.000001
v 5.000000 0.000000 0.000000
v -5.000000 1.464467 3.535535
v 5.000000 1.464467 3.535534
v -5.000000 5.000000 5.000000
v 5.000000 5.000000 5.000000
v -5.000000 8.535534 3.535535
v 5.000000 8.535533 3.535534
v 15.000000 8.535534 -3.535534
v 15.000000 10.000000 -0.000000
v 15.000000 5.000000 -5.000000
v 15.000000 1.464466 -3.535534
v 15.000000 0.000000 0.000000
v 15.000000 1.464467 3.535534
v 15.000000 5.000000 5.000000
v 15.000000 8.535533 3.535534
v -15.000000 10.000000 0.000000
v -15.000000 8.535534 -3.535534
v -15.000000 5.000000 -5.000000
v -15.000000 1.464467 -3.535534
v -15.000000 0.000000 0.000001
v -15.000000 1.464467 3.535535
v -15.000000 5.000000 5.000000
v -15.000000 8.535534 3.535535
v -26.977621 6.513183 -0.000000
v -26.977621 6.069982 -1.069982
v -26.977621 5.000000 -1.513183
v -26.977621 3.930018 -1.069982
v -26.977621 3.486817 0.000000
v -26.977621 3.930018 1.069982
v -26.977621 5.000000 1.513183
v -26.977621 6.069982 1.069982
v 25.000000 8.535534 -3.535534
v 25.000000 10.000000 -0.000000
v 25.000000 5.000000 -5.000000
v 25.000000 1.464466 -3.535534
v 25.000000 0.000000 0.000000
v 25.000000 1.464467 3.535534
v 25.000000 5.000000 5.000000
v 25.000000 8.535533 3.535534
v 27.729710 6.868615 -1.868615
v 27.729710 7.642621 -0.000000
v 27.729710 5.000000 -2.642621
v 27.729710 3.131385 -1.868615
v 27.729710 2.357379 0.000000
v 27.729710 3.131385 1.868615
v 27.729710 5.000000 2.642621
v 27.729710 6.868615 1.868615
vt 0.298658 0.613093
vt 0.299027 0.422429
vt 0.367583 0.421010
vt 0.367320 0.615777
vt 0.399261 0.420283
vt 0.399261 0.617230
vt 0.004390 0.619724
vt 0.000063 0.422303
vt 0.032211 0.422672
vt 0.035929 0.617977
vt 0.101692 0.423340
vt 0.104123 0.614513
vt 0.169926 0.423683
vt 0.170877 0.612265
vt 0.200625 0.423596
vt 0.200621 0.611864
vt 0.231259 0.423423
vt 0.202378 0.239194
vt 0.229478 0.238876
vt 0.231487 0.611984
vt 0.116622 0.794057
vt 0.051925 0.806170
vt 0.390145 0.225757
vt 0.359075 0.229149
vt 0.326772 0.048637
vt 0.356883 0.035841
vt 0.107747 0.234826
vt 0.172002 0.238422
vt 0.292705 0.235373
vt 0.008855 0.223258
vt 0.040767 0.227412
vt 0.227496 0.783837
vt 0.286713 0.794482
vt 0.226834 0.987651
vt 0.209844 0.983555
vt 0.202161 0.780357
vt 0.381033 0.813428
vt 0.351027 0.806655
vt 0.176595 0.783647
vt 0.021838 0.812811
vt 0.243226 0.994024
vt 0.249920 0.999937
vt 0.201324 0.984543
vt 0.192811 0.983473
vt 0.175784 0.987462
vt 0.159350 0.993731
vt 0.152625 0.999594
vt 0.219575 0.093553
vt 0.201658 0.099535
vt 0.203472 0.043478
vt 0.219449 0.043050
vt 0.137970 0.069475
vt 0.184406 0.092786
vt 0.051778 0.029478
vt 0.081216 0.043291
vt 0.268209 0.072765
vt 0.275889 0.016095
vt 0.248286 0.031387
vt 0.286819 0.003573
vt 0.159426 0.029222
vt 0.187518 0.042013
vt 0.122438 0.000063
vt 0.132739 0.012922
vn -0.0000 0.9239 -0.3827
vn 0.0000 0.3827 -0.9239
vn -0.0000 -0.3827 -0.9239
vn -0.0000 -0.9239 -0.3827
vn -0.0000 -0.9239 0.3827
vn 0.0000 -0.3827 0.9239
vn 0.0000 0.3827 0.9239
vn 0.0000 0.9239 0.3827
vn -0.2597 0.8922 0.3696
vn -1.0000 -0.0000 0.0000
vn -0.2597 -0.3696 0.8922
vn -0.2597 -0.8922 -0.3696
vn -0.2597 0.3696 -0.8922
vn -0.2597 0.3696 0.8922
vn -0.2597 -0.8922 0.3696
vn -0.2597 -0.3696 -0.8922
vn -0.2597 0.8922 -0.3696
vn 0.6237 0.2991 0.7222
vn 1.0000 0.0000 0.0000
vn 0.6237 -0.7222 0.2991
vn 0.6237 -0.2991 -0.7222
vn 0.6237 0.7222 -0.2991
vn 0.6237 0.7222 0.2991
vn 0.6237 -0.2991 0.7222
vn 0.6237 -0.7222 -0.2991
vn 0.6237 0.2991 -0.7222
usemtl None
s off
f 1/1/1 2/2/1 4/3/1 3/4/1
f 3/4/2 4/3/2 6/5/2 5/6/2
f 5/7/3 6/8/3 8/9/3 7/10/3
f 7/10/4 8/9/4 10/11/4 9/12/4
f 9/12/5 10/11/5 12/13/5 11/14/5
f 11/14/6 12/13/6 14/15/6 13/16/6
f 16/17/7 14/15/7 23/18/7 24/19/7
f 13/16/7 14/15/7 16/17/7 15/20/7
f 15/20/8 16/17/8 2/2/8 1/1/8
f 7/10/4 9/12/4 29/21/4 28/22/4
f 19/23/2 17/24/2 41/25/2 43/26/2
f 6/5/2 4/3/2 17/24/2 19/23/2
f 12/13/5 10/11/5 21/27/5 22/28/5
f 2/2/8 16/17/8 24/19/8 18/29/8
f 4/3/1 2/2/1 18/29/1 17/24/1
f 8/9/3 6/8/3 19/30/3 20/31/3
f 14/15/6 12/13/6 22/28/6 23/18/6
f 10/11/4 8/9/4 20/31/4 21/27/4
f 32/32/9 25/33/9 33/34/9 40/35/9
f 13/16/7 15/20/7 32/32/7 31/36/7
f 3/4/2 5/6/2 27/37/2 26/38/2
f 9/12/5 11/14/5 30/39/5 29/21/5
f 15/20/8 1/1/8 25/33/8 32/32/8
f 1/1/1 3/4/1 26/38/1 25/33/1
f 5/7/3 7/10/3 28/22/3 27/40/3
f 11/14/6 13/16/6 31/36/6 30/39/6
f 33/34/10 34/41/10 35/42/10 39/43/10 40/35/10
f 30/39/11 31/36/11 39/43/11 38/44/11
f 28/22/12 29/21/12 37/45/12 36/46/12
f 26/38/13 27/37/13 35/42/13 34/41/13
f 31/36/14 32/32/14 40/35/14 39/43/14
f 29/21/15 30/39/15 38/44/15 37/45/15
f 27/40/16 28/22/16 36/46/16 35/47/16
f 25/33/17 26/38/17 34/41/17 33/34/17
f 48/48/18 47/49/18 55/50/18 56/51/18
f 24/19/7 23/18/7 47/49/7 48/48/7
f 22/28/5 21/27/5 45/52/5 46/53/5
f 20/31/3 19/30/3 43/54/3 44/55/3
f 17/24/1 18/29/1 42/56/1 41/25/1
f 18/29/8 24/19/8 48/48/8 42/56/8
f 23/18/6 22/28/6 46/53/6 47/49/6
f 21/27/4 20/31/4 44/55/4 45/52/4
f 39/43/10 35/47/10 36/46/10 37/45/10 38/44/10
f 49/57/19 50/58/19 56/51/19 55/50/19 51/59/19
f 46/53/20 45/52/20 53/60/20 54/61/20
f 44/55/21 43/54/21 51/62/21 52/63/21
f 41/25/22 42/56/22 50/58/22 49/57/22
f 42/56/23 48/48/23 56/51/23 50/58/23
f 47/49/24 46/53/24 54/61/24 55/50/24
f 45/52/25 44/55/25 52/63/25 53/60/25
f 43/26/26 41/25/26 49/57/26 51/59/26
f 51/62/19 55/50/19 54/61/19 53/60/19 52/63/19
